# xmcd
#
# Track frame offsets:
#	182
#	33645
#	59595
#	88232
#	107080
#	147197
#	188505
#	206010
#	243852
#	266652
#
# Disc length: 3837 seconds
#
# Revision: 0
# Processed by: cddbd v1.5.1PL0 Copyright (c) Steve Scherf et al.
# Submitted via: dBpowerAMP V4.0
#
DISCID=900efb0a
DTITLE=Phil Guy - All star Chicago Blues
DYEAR=1900
DGENRE=Blues
TTITLE0=Breakin' out on top
TTITLE1=Texas Flood
TTITLE2=Blues with a feeling
TTITLE3=Red dress
TTITLE4=Ice around my heart
TTITLE5=Bad luck boy
TTITLE6=Wine head woman
TTITLE7=Skin and bones - money
TTITLE8=Love is like a quicksand
TTITLE9=Garbage man blues
EXTD=Jem Barnes
EXTT0=
EXTT1=
EXTT2=
EXTT3=
EXTT4=
EXTT5=
EXTT6=
EXTT7=
EXTT8=
EXTT9=
PLAYORDER=
